<svg xmlns="http://www.w3.org/2000/svg" version="1.1" xmlns:xlink="http://www.w3.org/1999/xlink" width="512" height="512" x="0" y="0" viewBox="0 0 100 100" style="enable-background:new 0 0 512 512" xml:space="preserve" class=""><g><path d="M6.459 6.458v7.917c-.009.976.344 1.92.99 2.652l30.676 34.477v42.037a3.958 3.958 0 0 0 2.177 3.563 3.958 3.958 0 0 0 1.781.396c.857 0 1.69-.278 2.375-.792l15.834-11.875a3.958 3.958 0 0 0 1.583-3.167V51.504l30.677-34.477a3.958 3.958 0 0 0 .99-2.652V6.458A3.958 3.958 0 0 0 89.582 2.5H10.417a3.958 3.958 0 0 0-3.958 3.958z" fill="#000000" opacity="1" data-original="#000000" class=""></path></g></svg>